Coordinates
version=1
nRows=27
nColumns=12
inDegrees=yes

Units are S.I. units (second, meters, Newtons, ...)
Angles are in degrees

endheader
time	SC_y	SC_z	SC_x	AC_y	AC_z	AC_x	GH_y	GH_z	GH_yy	EL_x	PS_y
       0.0              -24.25           26.3          81.46          61.37         -15.62         0.1811         -107.7          29.19          156.0          69.57          39.68
   0.02055              -24.25           26.3          81.45          61.37         -15.62         0.1832         -107.6          29.19          156.0          69.59          39.68
    0.0411              -24.25           26.3          81.45          61.37         -15.62         0.1854         -107.6          29.18          156.0           69.6          39.68
   0.06165              -24.25           26.3          81.45          61.37         -15.62         0.1878         -107.6          29.17          155.9          69.61          39.68
    0.0822              -24.25           26.3          81.45          61.37         -15.62         0.1903         -107.6          29.17          155.9          69.62          39.68
    0.1027              -24.25           26.3          81.44          61.36         -15.61          0.193         -107.6          29.16          155.9          69.63          39.68
    0.1233              -24.25           26.3          81.44          61.36         -15.61         0.1959         -107.6          29.15          155.8          69.65          39.69
    0.1438              -24.25           26.3          81.44          61.36         -15.61          0.199         -107.6          29.14          155.8          69.66          39.69
    0.1644              -24.25           26.3          81.44          61.36         -15.61         0.2022         -107.5          29.14          155.7          69.68          39.69
    0.1849              -24.25           26.3          81.43          61.36          -15.6         0.2058         -107.5          29.13          155.7          69.69          39.69
    0.2055              -24.25           26.3          81.43          61.35          -15.6         0.2096         -107.5          29.12          155.6          69.71           39.7
     0.226              -24.25           26.3          81.43          61.35          -15.6         0.2136         -107.5          29.11          155.6          69.73           39.7
    0.2466              -24.25           26.3          81.42          61.35         -15.59          0.218         -107.5          29.09          155.5          69.75           39.7
    0.2671              -24.25           26.3          81.42          61.35         -15.59         0.2228         -107.4          29.08          155.4          69.78          39.71
    0.2877              -24.25           26.3          81.41          61.34         -15.58         0.2279         -107.4          29.07          155.4           69.8          39.71
    0.3082              -24.25           26.3          81.41          61.34         -15.58         0.2335         -107.4          29.05          155.3          69.83          39.71
    0.3288              -24.25           26.3           81.4          61.34         -15.57         0.2395         -107.3          29.04          155.2          69.86          39.72
    0.3493              -24.25          26.31           81.4          61.33         -15.57         0.2461         -107.3          29.02          155.1          69.89          39.72
    0.3699              -24.25          26.31          81.39          61.33         -15.56         0.2533         -107.3           29.0          155.0          69.93          39.73
    0.3904              -24.25          26.31          81.38          61.33         -15.56         0.2612         -107.2          28.98          154.9          69.96          39.73
     0.411              -24.25          26.31          81.37          61.32         -15.55         0.2698         -107.2          28.96          154.8          70.01          39.74
    0.4315              -24.25          26.31          81.37          61.32         -15.54         0.2793         -107.1          28.93          154.7          70.05          39.75
    0.4521              -24.25          26.31          81.36          61.31         -15.53         0.2899         -107.1          28.91          154.5           70.1          39.75
    0.4726              -24.26          26.31          81.35           61.3         -15.52         0.3015         -107.0          28.88          154.4          70.16          39.76
    0.4932              -24.26          26.31          81.33           61.3         -15.51         0.3145         -106.9          28.84          154.2          70.22          39.77
    0.5137              -24.26          26.31          81.32          61.29          -15.5         0.3289         -106.9           28.8          154.0          70.29          39.78
    0.5343              -24.26          26.32          81.31          61.28         -15.49         0.3451         -106.8          28.76          153.8          70.37          39.79
